# xmcd
#
# Track frame offsets:
#	150
#	15946
#	31442
#	52254
#	61661
#
# Disc length: 1055 seconds
#
# Revision: 1
# Processed by: cddbd v1.5.2PL0 Copyright (c) Steve Scherf et al.
# Submitted via: audiograbber 1.83.01
#
DISCID=36041d05
DTITLE=Shun Kodama - Shun Kodama
DYEAR=2019
DGENRE=Blues
TTITLE0=Curtain
TTITLE1=KAYA
TTITLE2=awaii
TTITLE3=Knock
TTITLE4=Sete Anéis (Camp take)
EXTD=E-Mail: Shunkodama.guitar@gmail.com\nInstagram: shun_kodama_guitar\nFacebo
EXTD=ok: shunkodama.guitar
EXTT0=
EXTT1=
EXTT2=
EXTT3=
EXTT4=
PLAYORDER=
